<svg width="127" height="113" viewBox="0 0 127 113" fill="none" xmlns="http://www.w3.org/2000/svg">
<path d="M20.9711 76.9133L21.1597 77.0926L31.2923 87.772C32.1218 88.6462 31.9879 90.0367 31.0259 90.7321C25.6033 94.652 21.5868 97.3599 18.5083 98.8327C15.4643 100.289 13.9415 100.246 13.0122 99.7424C12.295 99.174 11.8598 98.5922 11.6106 97.8893C11.3385 97.122 11.224 96.0284 11.4735 94.36C11.9835 90.9496 13.9046 85.772 17.8346 77.4738C18.3984 76.2835 19.9874 75.9786 20.9711 76.9133Z" fill="#FEFAEF" stroke="#FFD632" stroke-width="4"/>
<path d="M106.029 76.9133L105.84 77.0926L95.7077 87.772C94.8782 88.6462 95.0121 90.0367 95.9741 90.7321C101.397 94.652 105.413 97.3599 108.492 98.8327C111.536 100.289 113.058 100.246 113.988 99.7424C114.705 99.174 115.14 98.5922 115.389 97.8893C115.662 97.122 115.776 96.0284 115.526 94.36C115.016 90.9496 113.095 85.772 109.165 77.4738C108.602 76.2835 107.013 75.9786 106.029 76.9133Z" fill="#FEFAEF" stroke="#FFD632" stroke-width="4"/>
<path d="M112.659 51.8532C112.659 79.3781 90.2458 101.706 62.5794 101.706C34.9131 101.706 12.5 79.3781 12.5 51.8532C12.5 24.3282 34.9131 2 62.5794 2C90.2458 2 112.659 24.3282 112.659 51.8532Z" fill="#FEFAEF" stroke="#FFD632" stroke-width="4"/>
<path d="M105.099 52.0623C105.099 75.3147 86.1646 94.1793 62.7895 94.1793C39.4144 94.1793 20.48 75.3147 20.48 52.0623C20.48 28.8099 39.4144 9.94531 62.7895 9.94531C86.1646 9.94531 105.099 28.8099 105.099 52.0623Z" fill="#FEFAEF" stroke="#FFD632" stroke-width="4"/>
<ellipse cx="38.0098" cy="50.8079" rx="5.66994" ry="5.64531" fill="#FFD632"/>
<path d="M36.7198 64.3454C36.7198 66.193 35.2155 67.6907 33.3598 67.6907C31.5042 67.6907 29.9998 66.193 29.9998 64.3454C29.9998 62.4978 31.5042 61 33.3598 61C35.2155 61 36.7198 62.4978 36.7198 64.3454Z" fill="#FEECBB"/>
<ellipse cx="94.4991" cy="63.9801" rx="3.35996" ry="3.34537" fill="#FEECBB"/>
<ellipse cx="88.8291" cy="50.8079" rx="5.66994" ry="5.64531" fill="#FFD632"/>
<path d="M58.7996 61.8892C61.9495 67.7436 67.4095 68.1617 70.5594 61.8892" stroke="#FFD632" stroke-width="6" stroke-linecap="round"/>
<path d="M87.4844 109.804C81.9728 110.741 75.0764 111.161 67.4746 109.478C65.0559 108.942 63.2494 106.774 63.6521 104.35C64.7899 97.5003 70.4051 92.9433 77.2844 92.5808C85.6129 92.7372 89.0672 95.6975 91.5849 102.911C92.6656 106.007 90.7001 109.258 87.4844 109.804Z" fill="#FEFAEF" stroke="#FFD632" stroke-width="4"/>
<path d="M63.4716 104.125L66.7451 95.6566H60.1981L63.4716 104.125Z" fill="#FFD632"/>
<path d="M57.552 109.725C52.044 110.656 45.1541 111.073 37.5598 109.4C35.1368 108.866 33.324 106.695 33.7328 104.269C34.8798 97.4633 40.4898 92.9367 47.361 92.5763C55.6774 92.7318 59.1337 95.6706 61.6505 102.829C62.7395 105.926 60.7713 109.181 57.552 109.725Z" fill="#FEFAEF" stroke="#FFD632" stroke-width="4"/>
</svg>
