<svg width="127" height="113" viewBox="0 0 127 113" fill="none" xmlns="http://www.w3.org/2000/svg">
<path d="M110 56C110 81.3765 89.21 102 63.5 102C37.79 102 17 81.3765 17 56C17 30.6235 37.79 10 63.5 10C89.21 10 110 30.6235 110 56Z" fill="#F093FF" stroke="#A313BB" stroke-width="6"/>
<ellipse cx="38.0098" cy="50.8079" rx="5.66994" ry="5.64531" fill="#A313BB"/>
<path d="M36.7198 64.3454C36.7198 66.193 35.2155 67.6907 33.3598 67.6907C31.5042 67.6907 29.9998 66.193 29.9998 64.3454C29.9998 62.4978 31.5042 61 33.3598 61C35.2155 61 36.7198 62.4978 36.7198 64.3454Z" fill="#FDEFFF"/>
<ellipse cx="94.4991" cy="63.9801" rx="3.35996" ry="3.34537" fill="#FDEFFF"/>
<ellipse cx="88.8291" cy="50.8079" rx="5.66994" ry="5.64531" fill="#A313BB"/>
<path d="M54 66C56.6786 71.1479 61.3214 71.5156 64 66" stroke="#A313BB" stroke-width="3" stroke-linecap="round"/>
<path d="M64 66C66.6786 71.1479 71.3214 71.5156 74 66" stroke="#A313BB" stroke-width="3" stroke-linecap="round"/>
<path d="M46.7644 102.621C41.2719 103.927 34.2997 104.553 26.5984 102.141C24.5002 101.484 23.1029 99.5169 23.2376 97.289C23.8306 87.4762 29.4978 80.845 36.5376 80.3456C45.1598 80.5637 48.3655 84.9767 50.8517 95.9114C51.5227 98.8625 49.7356 101.914 46.7644 102.621Z" fill="#FDEFFF" stroke="#A313BB" stroke-width="4"/>
<path d="M103.743 102.376C98.2596 103.664 91.3042 104.279 83.6222 101.904C81.5113 101.251 80.0998 99.2768 80.241 97.0401C80.8524 87.3617 86.5113 80.8248 93.5376 80.3316C102.14 80.5469 105.351 84.894 107.835 95.6597C108.517 98.6172 106.723 101.677 103.743 102.376Z" fill="#FDEFFF" stroke="#A313BB" stroke-width="4"/>
</svg>
